Coordinates
version=1
nRows=29
nColumns=22
inDegrees=yes

Units are S.I. units (second, meters, Newtons, ...)
If the header above contains a line with 'inDegrees', this indicates whether rotational values are in degrees (yes) or radians (no).

endheader
time	pelvis_tilt	pelvis_list	pelvis_rotation	pelvis_tx	pelvis_ty	pelvis_tz	hip_flexion_r	hip_adduction_r	hip_rotation_r	knee_angle_r	ankle_angle_r	subtalar_angle_r	hip_flexion_l	hip_adduction_l	hip_rotation_l	knee_angle_l	ankle_angle_l	subtalar_angle_l	lumbar_extension	lumbar_bending	lumbar_rotation
      1.92000000	      4.96803849	     -2.39804490	     83.72729375	      1.04114463	      1.01022264	      0.26751991	      4.91336551	      2.56280471	     -7.89683857	    -17.18670266	     10.35675092	      8.27699028	     24.13794278	     -6.88183481	    -12.70472550	    -53.75733570	      7.30114136	     -7.67173045	     -3.95715610	      0.40923277	     -0.45334359
      1.93000000	      4.97875632	     -2.20985908	     84.29502596	      1.04183401	      1.00987707	      0.25896917	      3.91520622	      2.57970570	     -8.43110881	    -16.74239804	     10.81394147	      8.38461576	     24.61289264	     -6.99369899	    -13.57353559	    -51.65667148	      7.54385031	     -7.46545538	     -4.12159190	      0.28041521	     -0.16532392
      1.94000000	      5.01721227	     -2.04792881	     84.88176356	      1.04236440	      1.00927375	      0.25039939	      2.96434752	      2.63262356	     -8.98654859	    -16.34515588	     11.28699980	      8.50608962	     25.06937966	     -7.11857044	    -14.45135610	    -49.46690283	      7.72668672	     -7.19104638	     -4.26067650	      0.19526271	      0.08240817
      1.95000000	      5.07756875	     -1.91202344	     85.49311822	      1.04272162	      1.00841735	      0.24182975	      2.06225063	      2.71652401	     -9.55626090	    -15.99366078	     11.76768980	      8.60841393	     25.51286626	     -7.23093378	    -15.30708674	    -47.19436274	      7.84085261	     -6.86942079	     -4.37718019	      0.14540288	      0.29777440
      1.96000000	      5.16601031	     -1.79833106	     86.11766587	      1.04292437	      1.00731981	      0.23328343	      1.21606415	      2.83645049	    -10.12650558	    -15.70458166	     12.23106993	      8.69093989	     25.94440845	     -7.34536768	    -16.16711995	    -44.85546646	      7.88494240	     -6.49219328	     -4.48013974	      0.13809637	      0.47145163
      1.97000000	      5.27449488	     -1.71084463	     86.75495563	      1.04295505	      1.00598367	      0.22477013	      0.43230770	      2.98233958	    -10.69321940	    -15.47884811	     12.68494740	      8.72673532	     26.37403054	     -7.43543736	    -16.99461557	    -42.45867742	      7.86791632	     -6.09251219	     -4.56497138	      0.16386459	      0.62217958
      1.98000000	      5.39850363	     -1.64591068	     87.39325337	      1.04282025	      1.00443475	      0.21628454	     -0.28792724	      3.14624735	    -11.24959122	    -15.32294850	     13.13387597	      8.72610833	     26.79731539	     -7.49929642	    -17.80127286	    -40.01060627	      7.79516608	     -5.67184101	     -4.63422405	      0.21855958	      0.74872248
      1.99000000	      5.53852880	     -1.60535256	     88.01593890	      1.04255457	      1.00269142	      0.20782047	     -0.94368834	      3.32773722	    -11.78242827	    -15.23313531	     13.57909757	      8.71247356	     27.21815392	     -7.54280554	    -18.58606103	    -37.52764565	      7.68129985	     -5.22664834	     -4.68614889	      0.29881221	      0.86761581
      2.00000000	      5.68089765	     -1.59687467	     88.62039569	      1.04214368	      1.00075521	      0.19937500	     -1.52345661	      3.50639226	    -12.30737545	    -15.21590322	     14.05293759	      8.68689462	     27.64726505	     -7.54527622	    -19.32479850	    -35.01926124	      7.52968765	     -4.80604658	     -4.70986812	      0.39029819	      0.98291000
      2.01000000	      5.82871087	     -1.59383052	     89.19193906	      1.04161675	      0.99869552	      0.19088922	     -2.07224967	      3.68482562	    -12.79680317	    -15.24582586	     14.52744438	      8.69038847	     28.04916678	     -7.52392305	    -20.03791567	    -32.49812229	      7.39135813	     -4.34620380	     -4.72694231	      0.49495418	      1.10071816
      2.02000000	      5.97805971	     -1.59347065	     89.73040449	      1.04101914	      0.99652743	      0.18234967	     -2.60300823	      3.86142806	    -13.26457257	    -15.30513143	     15.00730162	      8.73024712	     28.42698055	     -7.48291292	    -20.71700068	    -29.99075643	      7.28447790	     -3.86430337	     -4.74016191	      0.59935114	      1.21812418
      2.03000000	      6.12980276	     -1.57832167	     90.24092184	      1.04035114	      0.99428669	      0.17374180	     -3.14616634	      4.03975053	    -13.69958554	    -15.37537010	     15.51823334	      8.81832567	     28.76894220	     -7.43067910	    -21.35945853	    -27.52541966	      7.19742372	     -3.35090627	     -4.76885065	      0.70774116	      1.32660872
      2.04000000	      6.27286911	     -1.59824202	     90.73815794	      1.03963171	      0.99189756	      0.16509268	     -3.62481656	      4.20395696	    -14.13604416	    -15.50329248	     16.06408703	      8.84751747	     29.13033525	     -7.34399424	    -21.89376701	    -25.10602063	      7.08828942	     -3.00942191	     -4.75328302	      0.79434458	      1.42567754
      2.05000000	      6.39578904	     -1.53210947	     91.18832531	      1.03890293	      0.98960793	      0.15626129	     -4.22748270	      4.34901857	    -14.54890940	    -15.58427783	     16.53599894	      9.05546657	     29.36392021	     -7.26028273	    -22.45743924	    -22.76244255	      7.04438023	     -2.48839022	     -4.82469444	      0.84602209	      1.56366175
      2.06000000	      6.50428167	     -1.51790518	     91.63868275	      1.03811382	      0.98715800	      0.14735488	     -4.76337172	      4.47615992	    -14.97213654	    -15.70009916	     17.05236491	      9.18014575	     29.65073595	     -7.15626999	    -22.94996091	    -20.53207310	      6.90685529	     -2.14931609	     -4.82843451	      0.87002251	      1.66103408
      2.07000000	      6.59788484	     -1.45341480	     92.04196148	      1.03729940	      0.98475357	      0.13833717	     -5.35918626	      4.58590421	    -15.32060963	    -15.81975049	     17.55300659	      9.44637534	     29.85705645	     -7.05886152	    -23.41749920	    -18.41401825	      6.77970971	     -1.75161467	     -4.88974591	      0.86789244	      1.78124373
      2.08000000	      6.66514766	     -1.41894538	     92.42496283	      1.03639905	      0.98226489	      0.12920362	     -5.91929982	      4.65608301	    -15.67300461	    -15.96623853	     18.04168921	      9.71457672	     30.08780203	     -6.94880153	    -23.87555098	    -16.45481095	      6.60183554	     -1.41051060	     -4.90938310	      0.82764757	      1.88975887
      2.09000000	      6.70077155	     -1.41841763	     92.78094216	      1.03539890	      0.97971459	      0.11992882	     -6.44232921	      4.67718070	    -16.01927073	    -16.13929663	     18.49715040	      9.98667639	     30.34537001	     -6.82466504	    -24.34045274	    -14.67708509	      6.39437124	     -1.08642339	     -4.88104882	      0.74424643	      1.99273417
      2.10000000	      6.72562119	     -1.39352749	     93.07764963	      1.03431567	      0.97722495	      0.11051805	     -6.98788807	      4.66892839	    -16.27363996	    -16.34409772	     18.91751846	     10.43846085	     30.55701741	     -6.72022643	    -24.78154646	    -13.08603899	      6.27526253	     -0.64735674	     -4.88054966	      0.64728767	      2.13153824
      2.11000000	      6.72824833	     -1.40921504	     93.33740890	      1.03311587	      0.97472378	      0.10092251	     -7.48883176	      4.61446779	    -16.49146978	    -16.58167510	     19.27088186	     10.90987440	     30.80488981	     -6.62035872	    -25.22824479	    -11.72531272	      6.18507581	     -0.17686246	     -4.82064259	      0.52103641	      2.27486264
      2.12000000	      6.71588474	     -1.43576794	     93.54760867	      1.03180586	      0.97229203	      0.09110747	     -7.97764057	      4.51991290	    -16.64087431	    -16.85252607	     19.53865876	     11.45462511	     31.05204144	     -6.54287893	    -25.67853528	    -10.61267652	      6.17687505	      0.33586008	     -4.73371486	      0.37607364	      2.44181209
      2.13000000	      6.68656330	     -1.47207628	     93.69886601	      1.03041444	      0.96996857	      0.08102758	     -8.45742244	      4.38403159	    -16.70063178	    -17.15517827	     19.72397561	     12.02718380	     31.29728591	     -6.50116643	    -26.16580850	     -9.77910769	      6.23556386	      0.80954019	     -4.61601974	      0.20487005	      2.65049399
      2.14000000	      6.66260910	     -1.47545844	     93.80768917	      1.02889078	      0.96784829	      0.07062642	     -8.97720851	      4.23320607	    -16.66432951	    -17.48237998	     19.73904119	     12.74243559	     31.48621453	     -6.50803251	    -26.61221504	     -9.22266812	      6.44902516	      1.28619089	     -4.50726291	      0.04382276	      2.87242330
      2.15000000	      6.62703299	     -1.46640217	     93.85511301	      1.02729277	      0.96593284	      0.05987320	     -9.51622100	      4.04932643	    -16.51730440	    -17.83114076	     19.62585167	     13.48081857	     31.64861434	     -6.57532344	    -27.13703931	     -8.99025573	      6.73515073	      1.61725164	     -4.37896980	     -0.13711955	      3.13919015
      2.16000000	      6.59391318	     -1.43174798	     93.85589059	      1.02559563	      0.96425707	      0.04873534	    -10.09428562	      3.85092112	    -16.27011253	    -18.18531342	     19.36872951	     14.27567459	     31.76886344	     -6.71304447	    -27.71557758	     -9.08442986	      7.09845407	      1.79658633	     -4.23862559	     -0.32028949	      3.43980565
      2.17000000	      6.57161477	     -1.37072403	     93.79813067	      1.02380752	      0.96284149	      0.03723863	    -10.68926398	      3.64048919	    -15.89821455	    -18.58018878	     18.94394169	     15.09482292	     31.83595088	     -6.93436908	    -28.36821911	     -9.48454837	      7.50240395	      1.78864869	     -4.09113713	     -0.49438966	      3.77223581
      2.18000000	      6.55407311	     -1.28982941	     93.70123751	      1.02188461	      0.96167996	      0.02531901	    -11.31951887	      3.41644724	    -15.43609147	    -18.96757599	     18.37776776	     15.97062837	     31.84901076	     -7.22329883	    -29.10483895	    -10.17086564	      7.92389136	      1.59023488	     -3.91349050	     -0.66635375	      4.12722335
      2.19000000	      6.53318866	     -1.19706870	     93.57913301	      1.01979648	      0.96077641	      0.01295719	    -11.97748433	      3.16612541	    -14.94076201	    -19.34257122	     17.66511641	     16.98261712	     31.79917087	     -7.55702664	    -29.92352027	    -11.09159501	      8.30308090	      1.14651055	     -3.69508902	     -0.84835529	      4.50971392
      2.20000000	      6.52377759	     -1.09052457	     93.42438036	      1.01755268	      0.96013790	      0.00022690	    -12.63677610	      2.90416717	    -14.36435767	    -19.74312200	     16.79166575	     17.99756099	     31.68180056	     -7.95225545	    -30.85437440	    -12.20424772	      8.60966800	      0.43304877	     -3.44923141	     -1.01839194	      4.88993295
